<svg xmlns="http://www.w3.org/2000/svg" xmlns:xlink="http://www.w3.org/1999/xlink" width="1440" zoomAndPan="magnify" viewBox="0 0 1080 1079.999946" height="1440" preserveAspectRatio="xMidYMid meet" version="1.0"><defs><g/><clipPath id="0a17cce4f2"><path d="M 6.566406 8.078125 L 1071.070312 8.078125 L 1071.070312 1073 L 6.566406 1073 Z M 6.566406 8.078125 " clip-rule="nonzero"/></clipPath><clipPath id="841c798095"><path d="M 538.796875 8.082031 C 245.089844 8.082031 6.929688 246.03125 6.570312 539.691406 L 6.570312 541.101562 C 6.980469 834.480469 244.75 1072.230469 538.117188 1072.589844 L 539.480469 1072.589844 C 833.117188 1072.21875 1071.058594 834.070312 1071.058594 540.339844 C 1071.066406 246.378906 832.757812 8.082031 538.796875 8.082031 Z M 538.796875 8.082031 " clip-rule="nonzero"/></clipPath><clipPath id="a5c58e25b4"><path d="M 260.449219 170.003906 L 523 170.003906 L 523 420.882812 L 260.449219 420.882812 Z M 260.449219 170.003906 " clip-rule="nonzero"/></clipPath><clipPath id="2eb15af946"><path d="M 295.757812 420.519531 L 260.988281 420.519531 L 488.070312 170.519531 L 522.839844 170.519531 Z M 295.757812 420.519531 " clip-rule="nonzero"/></clipPath><clipPath id="de731f1f48"><path d="M 338.410156 170.003906 L 645 170.003906 L 645 420.882812 L 338.410156 420.882812 Z M 338.410156 170.003906 " clip-rule="nonzero"/></clipPath><clipPath id="870696b184"><path d="M 417.707031 420.519531 L 338.4375 420.519531 L 565.519531 170.519531 L 644.789062 170.519531 Z M 417.707031 420.519531 " clip-rule="nonzero"/></clipPath><clipPath id="816cfd5380"><path d="M 549.160156 326.730469 L 583.378906 326.730469 L 583.378906 360.941406 L 549.160156 360.941406 Z M 549.160156 326.730469 " clip-rule="nonzero"/></clipPath><clipPath id="adafa9ccff"><path d="M 606.019531 326.730469 L 640.238281 326.730469 L 640.238281 360.941406 L 606.019531 360.941406 Z M 606.019531 326.730469 " clip-rule="nonzero"/></clipPath><clipPath id="8618cbd837"><path d="M 549.160156 380.558594 L 583.378906 380.558594 L 583.378906 414.78125 L 549.160156 414.78125 Z M 549.160156 380.558594 " clip-rule="nonzero"/></clipPath><clipPath id="d720dad795"><path d="M 606.019531 380.558594 L 640.238281 380.558594 L 640.238281 414.78125 L 606.019531 414.78125 Z M 606.019531 380.558594 " clip-rule="nonzero"/></clipPath><clipPath id="0c267eacaa"><path d="M 197 441 L 901 441 L 901 519.839844 L 197 519.839844 Z M 197 441 " clip-rule="nonzero"/></clipPath><clipPath id="8f36a83653"><path d="M 900.527344 499.789062 C 900.527344 499.789062 897.777344 498.960938 892.609375 497.601562 C 887.457031 496.179688 879.820312 494.449219 870.128906 492.371094 C 850.738281 488.28125 822.96875 483.5 789.609375 480.488281 C 772.9375 478.96875 754.867188 477.890625 735.796875 477.46875 C 716.730469 477.03125 696.648438 477.320312 675.9375 478.339844 C 665.589844 478.871094 655.078125 479.660156 644.457031 480.511719 L 628.46875 482.101562 C 623.117188 482.730469 617.75 483.359375 612.347656 484 L 596.136719 486.25 C 590.71875 486.96875 585.320312 487.929688 579.886719 488.808594 C 569.007812 490.449219 558.179688 492.667969 547.359375 494.78125 L 531.148438 498.230469 C 525.738281 499.308594 520.410156 500.769531 515.046875 502.011719 L 507.019531 503.941406 C 504.199219 504.609375 501.378906 505.28125 498.570312 505.949219 L 490.359375 507.859375 C 487.589844 508.488281 484.628906 509.058594 481.777344 509.648438 L 473.179688 511.410156 C 470.328125 511.917969 467.5 512.417969 464.679688 512.917969 L 456.207031 514.320312 C 453.378906 514.710938 450.558594 515.101562 447.738281 515.480469 C 436.488281 517.03125 425.277344 518.148438 414.21875 518.78125 C 392.097656 520.140625 370.507812 519.441406 350.230469 517.160156 C 329.9375 514.820312 310.96875 510.511719 294.019531 505.050781 C 285.578125 502.191406 277.589844 499.210938 270.1875 495.890625 C 262.828125 492.519531 255.949219 489.148438 249.738281 485.511719 C 237.257812 478.390625 227.1875 470.96875 219.410156 464.390625 C 211.589844 457.851562 206.128906 452.019531 202.4375 448.089844 C 200.597656 446.128906 199.277344 444.519531 198.378906 443.460938 C 197.480469 442.398438 197.027344 441.851562 197.027344 441.851562 C 197.027344 441.851562 199.4375 443.441406 203.980469 446.261719 C 208.480469 449.121094 215.269531 453.019531 224.019531 457.460938 C 232.789062 461.851562 243.609375 466.679688 256.359375 470.949219 C 269.058594 475.320312 283.699219 479.058594 299.796875 481.78125 C 307.878906 483.03125 316.269531 484.28125 325.046875 484.878906 L 338.398438 485.78125 C 342.949219 485.929688 347.539062 486.109375 352.199219 486.089844 C 370.867188 486.179688 390.558594 484.96875 410.828125 482.308594 C 420.957031 480.851562 431.25 479.417969 441.617188 477.371094 L 449.410156 475.871094 C 452 475.300781 454.609375 474.738281 457.230469 474.167969 L 465.078125 472.511719 C 467.648438 471.898438 470.21875 471.28125 472.808594 470.660156 L 480.617188 468.769531 C 483.328125 468.050781 486.039062 467.320312 488.769531 466.601562 L 496.707031 464.519531 L 505.140625 462.390625 C 516.367188 459.417969 527.75 456.917969 539.160156 454.46875 C 550.628906 452.351562 562.089844 450.140625 573.597656 448.519531 L 582.21875 447.238281 C 585.089844 446.839844 587.980469 446.570312 590.847656 446.230469 L 608.046875 444.398438 C 613.777344 443.941406 619.46875 443.390625 625.148438 443.019531 L 642.128906 442.238281 C 653.386719 441.898438 664.5 441.691406 675.4375 442.019531 C 697.308594 442.449219 718.398438 444.167969 738.226562 446.789062 C 758.078125 449.417969 776.648438 453.019531 793.558594 457.160156 C 810.46875 461.320312 825.726562 466 839.007812 470.75 C 852.289062 475.5 863.609375 480.289062 872.75 484.601562 C 881.898438 488.859375 888.816406 492.769531 893.507812 495.429688 C 898.179688 498.128906 900.539062 499.78125 900.539062 499.78125 " clip-rule="nonzero"/></clipPath><clipPath id="09e2ddc6ac"><path d="M 3.898438 3.082031 L 1080 3.082031 L 1080 1080 L 3.898438 1080 Z M 3.898438 3.082031 " clip-rule="nonzero"/></clipPath><clipPath id="4b352a33c1"><path d="M 0 0 L 1080 0 L 1080 1079.917969 L 0 1079.917969 Z M 0 0 " clip-rule="nonzero"/></clipPath><clipPath id="88e712f1fa"><path d="M 37.144531 34.824219 L 1050.394531 34.824219 L 1050.394531 1048.074219 L 37.144531 1048.074219 Z M 37.144531 34.824219 " clip-rule="nonzero"/></clipPath></defs><rect x="-108" width="1296" fill="#ffffff" y="-107.999995" height="1295.999935" fill-opacity="1"/><g clip-path="url(#0a17cce4f2)"><g clip-path="url(#841c798095)"><path fill="#ffffff" d="M 1.570312 3.082031 L 1076.066406 3.082031 L 1076.066406 1077.578125 L 1.570312 1077.578125 Z M 1.570312 3.082031 " fill-opacity="1" fill-rule="nonzero"/></g></g><g clip-path="url(#a5c58e25b4)"><g clip-path="url(#2eb15af946)"><path fill="#ff0080" d="M 1.570312 3.082031 L 1076.066406 3.082031 L 1076.066406 1077.578125 L 1.570312 1077.578125 Z M 1.570312 3.082031 " fill-opacity="1" fill-rule="nonzero"/></g></g><g clip-path="url(#de731f1f48)"><g clip-path="url(#870696b184)"><path fill="#ff0080" d="M 1.570312 3.082031 L 1076.066406 3.082031 L 1076.066406 1077.578125 L 1.570312 1077.578125 Z M 1.570312 3.082031 " fill-opacity="1" fill-rule="nonzero"/></g></g><g clip-path="url(#816cfd5380)"><path fill="#ff0080" d="M 1.570312 3.082031 L 1076.066406 3.082031 L 1076.066406 1077.578125 L 1.570312 1077.578125 Z M 1.570312 3.082031 " fill-opacity="1" fill-rule="nonzero"/></g><g clip-path="url(#adafa9ccff)"><path fill="#ff0080" d="M 1.570312 3.082031 L 1076.066406 3.082031 L 1076.066406 1077.578125 L 1.570312 1077.578125 Z M 1.570312 3.082031 " fill-opacity="1" fill-rule="nonzero"/></g><g clip-path="url(#8618cbd837)"><path fill="#ff0080" d="M 1.570312 3.082031 L 1076.066406 3.082031 L 1076.066406 1077.578125 L 1.570312 1077.578125 Z M 1.570312 3.082031 " fill-opacity="1" fill-rule="nonzero"/></g><g clip-path="url(#d720dad795)"><path fill="#ff0080" d="M 1.570312 3.082031 L 1076.066406 3.082031 L 1076.066406 1077.578125 L 1.570312 1077.578125 Z M 1.570312 3.082031 " fill-opacity="1" fill-rule="nonzero"/></g><g clip-path="url(#0c267eacaa)"><g clip-path="url(#8f36a83653)"><path fill="#ff0080" d="M 1.570312 3.082031 L 1076.066406 3.082031 L 1076.066406 1077.578125 L 1.570312 1077.578125 Z M 1.570312 3.082031 " fill-opacity="1" fill-rule="nonzero"/></g></g><g fill="#000000" fill-opacity="1"><g transform="translate(78.247762, 637.708338)"><g><path d="M 73.546875 -30.59375 L 66.8125 -29.921875 C 66.726562 -26.609375 66.664062 -23.273438 66.625 -19.921875 C 66.59375 -16.578125 66.578125 -13.175781 66.578125 -9.71875 L 66.578125 -4.859375 C 62.753906 -2.867188 58.910156 -1.285156 55.046875 -0.109375 C 51.179688 1.066406 46.929688 1.65625 42.296875 1.65625 C 36.773438 1.65625 31.726562 0.679688 27.15625 -1.265625 C 22.59375 -3.222656 18.691406 -5.910156 15.453125 -9.328125 C 12.210938 -12.753906 9.691406 -16.820312 7.890625 -21.53125 C 6.085938 -26.238281 5.1875 -31.351562 5.1875 -36.875 C 5.1875 -42.394531 6.085938 -47.53125 7.890625 -52.28125 C 9.691406 -57.03125 12.25 -61.113281 15.5625 -64.53125 C 18.875 -67.957031 22.832031 -70.644531 27.4375 -72.59375 C 32.039062 -74.550781 37.175781 -75.53125 42.84375 -75.53125 C 47.332031 -75.53125 51.34375 -75.101562 54.875 -74.25 C 58.414062 -73.40625 61.800781 -72.066406 65.03125 -70.234375 L 65.484375 -54.21875 L 58.53125 -54.21875 L 56.3125 -67.03125 C 54.320312 -68.0625 52.296875 -68.796875 50.234375 -69.234375 C 48.179688 -69.671875 46.015625 -69.890625 43.734375 -69.890625 C 39.898438 -69.890625 36.363281 -69.15625 33.125 -67.6875 C 29.882812 -66.21875 27.066406 -64.082031 24.671875 -61.28125 C 22.285156 -58.488281 20.425781 -55.046875 19.09375 -50.953125 C 17.769531 -46.867188 17.109375 -42.175781 17.109375 -36.875 C 17.109375 -26.351562 19.535156 -18.238281 24.390625 -12.53125 C 29.253906 -6.820312 35.957031 -3.96875 44.5 -3.96875 C 48.625 -3.96875 52.523438 -4.707031 56.203125 -6.1875 L 56.203125 -9.71875 C 56.203125 -13.03125 56.179688 -16.34375 56.140625 -19.65625 C 56.109375 -22.96875 56.054688 -26.28125 55.984375 -29.59375 L 44.609375 -30.59375 L 44.609375 -35 L 73.546875 -35 Z M 73.546875 -30.59375 "/></g></g></g><g fill="#000000" fill-opacity="1"><g transform="translate(153.439707, 637.708338)"><g><path d="M 34.125 -39.203125 C 40.082031 -39.203125 44.492188 -40.65625 47.359375 -43.5625 C 50.234375 -46.46875 51.671875 -50.238281 51.671875 -54.875 C 51.671875 -59.289062 50.382812 -62.695312 47.8125 -65.09375 C 45.238281 -67.488281 41.078125 -68.6875 35.328125 -68.6875 L 25.84375 -68.6875 C 25.695312 -63.894531 25.625 -59.125 25.625 -54.375 C 25.625 -49.632812 25.625 -44.578125 25.625 -39.203125 Z M 70.234375 -4.53125 L 70.234375 0 C 69.203125 0.363281 68.003906 0.640625 66.640625 0.828125 C 65.273438 1.015625 63.75 1.109375 62.0625 1.109375 C 58.445312 1.109375 55.644531 0.59375 53.65625 -0.4375 C 51.675781 -1.46875 50.351562 -3.3125 49.6875 -5.96875 L 45.265625 -23.625 C 44.753906 -25.832031 44.113281 -27.617188 43.34375 -28.984375 C 42.570312 -30.347656 41.59375 -31.414062 40.40625 -32.1875 C 39.226562 -32.957031 37.832031 -33.472656 36.21875 -33.734375 C 34.601562 -33.992188 32.6875 -34.125 30.46875 -34.125 L 25.625 -34.125 C 25.625 -29.113281 25.625 -24.289062 25.625 -19.65625 C 25.625 -15.019531 25.695312 -10.378906 25.84375 -5.734375 L 36.109375 -4.53125 L 36.109375 0 L 4.859375 0 L 4.859375 -4.53125 L 15.015625 -5.734375 C 15.160156 -10.378906 15.234375 -15.070312 15.234375 -19.8125 C 15.234375 -24.5625 15.234375 -29.367188 15.234375 -34.234375 L 15.234375 -39.640625 C 15.234375 -44.421875 15.234375 -49.164062 15.234375 -53.875 C 15.234375 -58.59375 15.160156 -63.34375 15.015625 -68.125 L 4.859375 -69.34375 L 4.859375 -73.875 L 35.78125 -73.875 C 44.238281 -73.875 50.804688 -72.195312 55.484375 -68.84375 C 60.160156 -65.5 62.5 -60.84375 62.5 -54.875 C 62.5 -52.59375 62.148438 -50.398438 61.453125 -48.296875 C 60.753906 -46.203125 59.6875 -44.304688 58.25 -42.609375 C 56.8125 -40.921875 54.96875 -39.46875 52.71875 -38.25 C 50.476562 -37.039062 47.773438 -36.144531 44.609375 -35.5625 C 47.410156 -34.75 49.726562 -33.273438 51.5625 -31.140625 C 53.40625 -29.003906 54.914062 -25.910156 56.09375 -21.859375 L 60.84375 -5.625 Z M 70.234375 -4.53125 "/></g></g></g><g fill="#000000" fill-opacity="1"><g transform="translate(225.319229, 637.708338)"><g><path d="M 76.75 -69.34375 L 67.140625 -68.015625 L 67.140625 -30.25 C 67.140625 -24.4375 66.472656 -19.503906 65.140625 -15.453125 C 63.816406 -11.410156 61.957031 -8.117188 59.5625 -5.578125 C 57.175781 -3.035156 54.378906 -1.191406 51.171875 -0.046875 C 47.972656 1.085938 44.5 1.65625 40.75 1.65625 C 36.695312 1.65625 33.015625 1.085938 29.703125 -0.046875 C 26.390625 -1.191406 23.535156 -2.957031 21.140625 -5.34375 C 18.753906 -7.738281 16.914062 -10.796875 15.625 -14.515625 C 14.332031 -18.234375 13.6875 -22.671875 13.6875 -27.828125 L 13.6875 -39.640625 C 13.6875 -44.421875 13.6875 -49.1875 13.6875 -53.9375 C 13.6875 -58.6875 13.613281 -63.453125 13.46875 -68.234375 L 4.3125 -69.34375 L 4.3125 -73.875 L 35.5625 -73.875 L 35.5625 -69.34375 L 24.40625 -68.015625 C 24.257812 -63.378906 24.1875 -58.703125 24.1875 -53.984375 C 24.1875 -49.273438 24.1875 -44.492188 24.1875 -39.640625 L 24.1875 -31.03125 C 24.1875 -26.320312 24.609375 -22.382812 25.453125 -19.21875 C 26.296875 -16.050781 27.507812 -13.488281 29.09375 -11.53125 C 30.675781 -9.582031 32.609375 -8.203125 34.890625 -7.390625 C 37.171875 -6.585938 39.710938 -6.1875 42.515625 -6.1875 C 45.679688 -6.1875 48.441406 -6.660156 50.796875 -7.609375 C 53.148438 -8.566406 55.117188 -10.09375 56.703125 -12.1875 C 58.285156 -14.289062 59.476562 -17.035156 60.28125 -20.421875 C 61.09375 -23.804688 61.5 -27.96875 61.5 -32.90625 L 61.5 -67.796875 L 50.234375 -69.34375 L 50.234375 -73.875 L 76.75 -73.875 Z M 76.75 -69.34375 "/></g></g></g><g fill="#000000" fill-opacity="1"><g transform="translate(305.811035, 637.708338)"><g><path d="M 25.84375 -68.6875 C 25.695312 -63.894531 25.625 -59.085938 25.625 -54.265625 C 25.625 -49.453125 25.625 -44.578125 25.625 -39.640625 L 25.625 -34.34375 L 30.921875 -34.34375 C 34.671875 -34.34375 37.851562 -34.765625 40.46875 -35.609375 C 43.082031 -36.453125 45.21875 -37.644531 46.875 -39.1875 C 48.53125 -40.738281 49.742188 -42.582031 50.515625 -44.71875 C 51.285156 -46.851562 51.671875 -49.242188 51.671875 -51.890625 C 51.671875 -57.191406 50.160156 -61.316406 47.140625 -64.265625 C 44.128906 -67.210938 39.273438 -68.6875 32.578125 -68.6875 Z M 25.625 -29.15625 C 25.625 -25.25 25.625 -21.363281 25.625 -17.5 C 25.625 -13.632812 25.695312 -9.710938 25.84375 -5.734375 L 36.109375 -4.53125 L 36.109375 0 L 4.859375 0 L 4.859375 -4.53125 L 15.015625 -5.734375 C 15.160156 -10.378906 15.234375 -15.070312 15.234375 -19.8125 C 15.234375 -24.5625 15.234375 -29.367188 15.234375 -34.234375 L 15.234375 -39.640625 C 15.234375 -44.421875 15.234375 -49.164062 15.234375 -53.875 C 15.234375 -58.59375 15.160156 -63.34375 15.015625 -68.125 L 4.859375 -69.34375 L 4.859375 -73.875 L 34.5625 -73.875 C 39.195312 -73.875 43.28125 -73.335938 46.8125 -72.265625 C 50.351562 -71.203125 53.28125 -69.691406 55.59375 -67.734375 C 57.914062 -65.785156 59.664062 -63.46875 60.84375 -60.78125 C 62.019531 -58.09375 62.609375 -55.128906 62.609375 -51.890625 C 62.609375 -48.804688 62 -45.898438 60.78125 -43.171875 C 59.570312 -40.453125 57.640625 -38.039062 54.984375 -35.9375 C 52.335938 -33.84375 48.894531 -32.1875 44.65625 -30.96875 C 40.425781 -29.757812 35.296875 -29.15625 29.265625 -29.15625 Z M 25.625 -29.15625 "/></g></g></g><g fill="#000000" fill-opacity="1"><g transform="translate(370.844896, 637.708338)"><g><path d="M 17.21875 -36.875 C 17.21875 -32.757812 17.640625 -28.726562 18.484375 -24.78125 C 19.335938 -20.84375 20.644531 -17.328125 22.40625 -14.234375 C 24.175781 -11.148438 26.441406 -8.648438 29.203125 -6.734375 C 31.960938 -4.816406 35.257812 -3.859375 39.09375 -3.859375 C 42.914062 -3.859375 46.207031 -4.816406 48.96875 -6.734375 C 51.726562 -8.648438 53.988281 -11.148438 55.75 -14.234375 C 57.519531 -17.328125 58.828125 -20.84375 59.671875 -24.78125 C 60.523438 -28.726562 60.953125 -32.757812 60.953125 -36.875 C 60.953125 -41 60.523438 -45.046875 59.671875 -49.015625 C 58.828125 -52.992188 57.519531 -56.53125 55.75 -59.625 C 53.988281 -62.71875 51.726562 -65.203125 48.96875 -67.078125 C 46.207031 -68.953125 42.914062 -69.890625 39.09375 -69.890625 C 35.257812 -69.890625 31.960938 -68.953125 29.203125 -67.078125 C 26.441406 -65.203125 24.175781 -62.71875 22.40625 -59.625 C 20.644531 -56.53125 19.335938 -52.992188 18.484375 -49.015625 C 17.640625 -45.046875 17.21875 -41 17.21875 -36.875 Z M 39.09375 -75.53125 C 43.363281 -75.53125 47.519531 -74.703125 51.5625 -73.046875 C 55.613281 -71.390625 59.222656 -68.921875 62.390625 -65.640625 C 65.554688 -62.367188 68.09375 -58.320312 70 -53.5 C 71.914062 -48.675781 72.875 -43.132812 72.875 -36.875 C 72.875 -30.84375 71.914062 -25.429688 70 -20.640625 C 68.09375 -15.859375 65.554688 -11.8125 62.390625 -8.5 C 59.222656 -5.1875 55.613281 -2.664062 51.5625 -0.9375 C 47.519531 0.789062 43.363281 1.65625 39.09375 1.65625 C 34.820312 1.65625 30.640625 0.828125 26.546875 -0.828125 C 22.460938 -2.484375 18.835938 -4.929688 15.671875 -8.171875 C 12.515625 -11.410156 9.976562 -15.421875 8.0625 -20.203125 C 6.144531 -24.992188 5.1875 -30.550781 5.1875 -36.875 C 5.1875 -42.914062 6.160156 -48.328125 8.109375 -53.109375 C 10.066406 -57.898438 12.625 -61.953125 15.78125 -65.265625 C 18.945312 -68.578125 22.554688 -71.113281 26.609375 -72.875 C 30.660156 -74.644531 34.820312 -75.53125 39.09375 -75.53125 Z M 39.09375 -75.53125 "/></g></g></g><g fill="#000000" fill-opacity="1"><g transform="translate(448.907603, 637.708338)"><g/></g></g><g fill="#000000" fill-opacity="1"><g transform="translate(474.634079, 637.708338)"><g><path d="M 25.84375 -68.234375 C 25.695312 -63.597656 25.625 -58.960938 25.625 -54.328125 C 25.625 -49.691406 25.625 -45.015625 25.625 -40.296875 L 42.84375 -40.296875 L 44.390625 -50.90625 L 49.46875 -50.90625 L 49.46875 -23.625 L 44.390625 -23.625 L 42.84375 -35.109375 L 25.625 -35.109375 C 25.625 -29.890625 25.625 -24.867188 25.625 -20.046875 C 25.625 -15.222656 25.695312 -10.453125 25.84375 -5.734375 L 36.109375 -4.53125 L 36.109375 0 L 4.859375 0 L 4.859375 -4.53125 L 15.015625 -5.734375 C 15.160156 -10.378906 15.234375 -15.070312 15.234375 -19.8125 C 15.234375 -24.5625 15.234375 -29.367188 15.234375 -34.234375 L 15.234375 -39.640625 C 15.234375 -44.421875 15.234375 -49.164062 15.234375 -53.875 C 15.234375 -58.59375 15.160156 -63.34375 15.015625 -68.125 L 4.859375 -69.34375 L 4.859375 -73.875 L 59.84375 -73.875 L 60.625 -54.21875 L 54.328125 -54.21875 L 51.890625 -68.234375 Z M 25.84375 -68.234375 "/></g></g></g><g fill="#000000" fill-opacity="1"><g transform="translate(538.563791, 637.708338)"><g><path d="M 62.828125 -19.65625 L 62.0625 0 L 4.859375 0 L 4.859375 -4.53125 L 15.015625 -5.734375 C 15.160156 -10.378906 15.234375 -15.070312 15.234375 -19.8125 C 15.234375 -24.5625 15.234375 -29.367188 15.234375 -34.234375 L 15.234375 -39.640625 C 15.234375 -44.421875 15.234375 -49.164062 15.234375 -53.875 C 15.234375 -58.59375 15.160156 -63.34375 15.015625 -68.125 L 4.859375 -69.34375 L 4.859375 -73.875 L 59.84375 -73.875 L 60.625 -54.21875 L 54.328125 -54.21875 L 51.890625 -68.234375 L 25.84375 -68.234375 C 25.695312 -63.597656 25.625 -58.960938 25.625 -54.328125 C 25.625 -49.691406 25.625 -45.015625 25.625 -40.296875 L 42.078125 -40.296875 L 43.609375 -50.90625 L 48.578125 -50.90625 L 48.578125 -24.734375 L 43.609375 -24.734375 L 42.1875 -35.109375 L 25.625 -35.109375 C 25.625 -29.804688 25.625 -24.742188 25.625 -19.921875 C 25.625 -15.109375 25.695312 -10.304688 25.84375 -5.515625 L 54.109375 -5.515625 L 56.53125 -19.65625 Z M 62.828125 -19.65625 "/></g></g></g><g fill="#000000" fill-opacity="1"><g transform="translate(605.253863, 637.708338)"><g><path d="M 34.125 -39.203125 C 40.082031 -39.203125 44.492188 -40.65625 47.359375 -43.5625 C 50.234375 -46.46875 51.671875 -50.238281 51.671875 -54.875 C 51.671875 -59.289062 50.382812 -62.695312 47.8125 -65.09375 C 45.238281 -67.488281 41.078125 -68.6875 35.328125 -68.6875 L 25.84375 -68.6875 C 25.695312 -63.894531 25.625 -59.125 25.625 -54.375 C 25.625 -49.632812 25.625 -44.578125 25.625 -39.203125 Z M 70.234375 -4.53125 L 70.234375 0 C 69.203125 0.363281 68.003906 0.640625 66.640625 0.828125 C 65.273438 1.015625 63.75 1.109375 62.0625 1.109375 C 58.445312 1.109375 55.644531 0.59375 53.65625 -0.4375 C 51.675781 -1.46875 50.351562 -3.3125 49.6875 -5.96875 L 45.265625 -23.625 C 44.753906 -25.832031 44.113281 -27.617188 43.34375 -28.984375 C 42.570312 -30.347656 41.59375 -31.414062 40.40625 -32.1875 C 39.226562 -32.957031 37.832031 -33.472656 36.21875 -33.734375 C 34.601562 -33.992188 32.6875 -34.125 30.46875 -34.125 L 25.625 -34.125 C 25.625 -29.113281 25.625 -24.289062 25.625 -19.65625 C 25.625 -15.019531 25.695312 -10.378906 25.84375 -5.734375 L 36.109375 -4.53125 L 36.109375 0 L 4.859375 0 L 4.859375 -4.53125 L 15.015625 -5.734375 C 15.160156 -10.378906 15.234375 -15.070312 15.234375 -19.8125 C 15.234375 -24.5625 15.234375 -29.367188 15.234375 -34.234375 L 15.234375 -39.640625 C 15.234375 -44.421875 15.234375 -49.164062 15.234375 -53.875 C 15.234375 -58.59375 15.160156 -63.34375 15.015625 -68.125 L 4.859375 -69.34375 L 4.859375 -73.875 L 35.78125 -73.875 C 44.238281 -73.875 50.804688 -72.195312 55.484375 -68.84375 C 60.160156 -65.5 62.5 -60.84375 62.5 -54.875 C 62.5 -52.59375 62.148438 -50.398438 61.453125 -48.296875 C 60.753906 -46.203125 59.6875 -44.304688 58.25 -42.609375 C 56.8125 -40.921875 54.96875 -39.46875 52.71875 -38.25 C 50.476562 -37.039062 47.773438 -36.144531 44.609375 -35.5625 C 47.410156 -34.75 49.726562 -33.273438 51.5625 -31.140625 C 53.40625 -29.003906 54.914062 -25.910156 56.09375 -21.859375 L 60.84375 -5.625 Z M 70.234375 -4.53125 "/></g></g></g><g fill="#000000" fill-opacity="1"><g transform="translate(677.133373, 637.708338)"><g><path d="M 34.125 -39.203125 C 40.082031 -39.203125 44.492188 -40.65625 47.359375 -43.5625 C 50.234375 -46.46875 51.671875 -50.238281 51.671875 -54.875 C 51.671875 -59.289062 50.382812 -62.695312 47.8125 -65.09375 C 45.238281 -67.488281 41.078125 -68.6875 35.328125 -68.6875 L 25.84375 -68.6875 C 25.695312 -63.894531 25.625 -59.125 25.625 -54.375 C 25.625 -49.632812 25.625 -44.578125 25.625 -39.203125 Z M 70.234375 -4.53125 L 70.234375 0 C 69.203125 0.363281 68.003906 0.640625 66.640625 0.828125 C 65.273438 1.015625 63.75 1.109375 62.0625 1.109375 C 58.445312 1.109375 55.644531 0.59375 53.65625 -0.4375 C 51.675781 -1.46875 50.351562 -3.3125 49.6875 -5.96875 L 45.265625 -23.625 C 44.753906 -25.832031 44.113281 -27.617188 43.34375 -28.984375 C 42.570312 -30.347656 41.59375 -31.414062 40.40625 -32.1875 C 39.226562 -32.957031 37.832031 -33.472656 36.21875 -33.734375 C 34.601562 -33.992188 32.6875 -34.125 30.46875 -34.125 L 25.625 -34.125 C 25.625 -29.113281 25.625 -24.289062 25.625 -19.65625 C 25.625 -15.019531 25.695312 -10.378906 25.84375 -5.734375 L 36.109375 -4.53125 L 36.109375 0 L 4.859375 0 L 4.859375 -4.53125 L 15.015625 -5.734375 C 15.160156 -10.378906 15.234375 -15.070312 15.234375 -19.8125 C 15.234375 -24.5625 15.234375 -29.367188 15.234375 -34.234375 L 15.234375 -39.640625 C 15.234375 -44.421875 15.234375 -49.164062 15.234375 -53.875 C 15.234375 -58.59375 15.160156 -63.34375 15.015625 -68.125 L 4.859375 -69.34375 L 4.859375 -73.875 L 35.78125 -73.875 C 44.238281 -73.875 50.804688 -72.195312 55.484375 -68.84375 C 60.160156 -65.5 62.5 -60.84375 62.5 -54.875 C 62.5 -52.59375 62.148438 -50.398438 61.453125 -48.296875 C 60.753906 -46.203125 59.6875 -44.304688 58.25 -42.609375 C 56.8125 -40.921875 54.96875 -39.46875 52.71875 -38.25 C 50.476562 -37.039062 47.773438 -36.144531 44.609375 -35.5625 C 47.410156 -34.75 49.726562 -33.273438 51.5625 -31.140625 C 53.40625 -29.003906 54.914062 -25.910156 56.09375 -21.859375 L 60.84375 -5.625 Z M 70.234375 -4.53125 "/></g></g></g><g fill="#000000" fill-opacity="1"><g transform="translate(749.012883, 637.708338)"><g><path d="M 62.828125 -19.65625 L 62.0625 0 L 4.859375 0 L 4.859375 -4.53125 L 15.015625 -5.734375 C 15.160156 -10.378906 15.234375 -15.070312 15.234375 -19.8125 C 15.234375 -24.5625 15.234375 -29.367188 15.234375 -34.234375 L 15.234375 -39.640625 C 15.234375 -44.421875 15.234375 -49.164062 15.234375 -53.875 C 15.234375 -58.59375 15.160156 -63.34375 15.015625 -68.125 L 4.859375 -69.34375 L 4.859375 -73.875 L 59.84375 -73.875 L 60.625 -54.21875 L 54.328125 -54.21875 L 51.890625 -68.234375 L 25.84375 -68.234375 C 25.695312 -63.597656 25.625 -58.960938 25.625 -54.328125 C 25.625 -49.691406 25.625 -45.015625 25.625 -40.296875 L 42.078125 -40.296875 L 43.609375 -50.90625 L 48.578125 -50.90625 L 48.578125 -24.734375 L 43.609375 -24.734375 L 42.1875 -35.109375 L 25.625 -35.109375 C 25.625 -29.804688 25.625 -24.742188 25.625 -19.921875 C 25.625 -15.109375 25.695312 -10.304688 25.84375 -5.515625 L 54.109375 -5.515625 L 56.53125 -19.65625 Z M 62.828125 -19.65625 "/></g></g></g><g fill="#000000" fill-opacity="1"><g transform="translate(815.702955, 637.708338)"><g><path d="M 25.84375 -68.125 C 25.695312 -63.488281 25.625 -58.796875 25.625 -54.046875 C 25.625 -49.296875 25.625 -44.492188 25.625 -39.640625 L 25.625 -34.234375 C 25.625 -29.441406 25.625 -24.691406 25.625 -19.984375 C 25.625 -15.273438 25.695312 -10.523438 25.84375 -5.734375 L 36.109375 -4.53125 L 36.109375 0 L 4.859375 0 L 4.859375 -4.53125 L 15.015625 -5.734375 C 15.160156 -10.378906 15.234375 -15.070312 15.234375 -19.8125 C 15.234375 -24.5625 15.234375 -29.367188 15.234375 -34.234375 L 15.234375 -39.640625 C 15.234375 -44.421875 15.234375 -49.164062 15.234375 -53.875 C 15.234375 -58.59375 15.160156 -63.34375 15.015625 -68.125 L 4.859375 -69.34375 L 4.859375 -73.875 L 36.109375 -73.875 L 36.109375 -69.34375 Z M 25.84375 -68.125 "/></g></g></g><g fill="#000000" fill-opacity="1"><g transform="translate(856.556162, 637.708338)"><g><path d="M 34.125 -39.203125 C 40.082031 -39.203125 44.492188 -40.65625 47.359375 -43.5625 C 50.234375 -46.46875 51.671875 -50.238281 51.671875 -54.875 C 51.671875 -59.289062 50.382812 -62.695312 47.8125 -65.09375 C 45.238281 -67.488281 41.078125 -68.6875 35.328125 -68.6875 L 25.84375 -68.6875 C 25.695312 -63.894531 25.625 -59.125 25.625 -54.375 C 25.625 -49.632812 25.625 -44.578125 25.625 -39.203125 Z M 70.234375 -4.53125 L 70.234375 0 C 69.203125 0.363281 68.003906 0.640625 66.640625 0.828125 C 65.273438 1.015625 63.75 1.109375 62.0625 1.109375 C 58.445312 1.109375 55.644531 0.59375 53.65625 -0.4375 C 51.675781 -1.46875 50.351562 -3.3125 49.6875 -5.96875 L 45.265625 -23.625 C 44.753906 -25.832031 44.113281 -27.617188 43.34375 -28.984375 C 42.570312 -30.347656 41.59375 -31.414062 40.40625 -32.1875 C 39.226562 -32.957031 37.832031 -33.472656 36.21875 -33.734375 C 34.601562 -33.992188 32.6875 -34.125 30.46875 -34.125 L 25.625 -34.125 C 25.625 -29.113281 25.625 -24.289062 25.625 -19.65625 C 25.625 -15.019531 25.695312 -10.378906 25.84375 -5.734375 L 36.109375 -4.53125 L 36.109375 0 L 4.859375 0 L 4.859375 -4.53125 L 15.015625 -5.734375 C 15.160156 -10.378906 15.234375 -15.070312 15.234375 -19.8125 C 15.234375 -24.5625 15.234375 -29.367188 15.234375 -34.234375 L 15.234375 -39.640625 C 15.234375 -44.421875 15.234375 -49.164062 15.234375 -53.875 C 15.234375 -58.59375 15.160156 -63.34375 15.015625 -68.125 L 4.859375 -69.34375 L 4.859375 -73.875 L 35.78125 -73.875 C 44.238281 -73.875 50.804688 -72.195312 55.484375 -68.84375 C 60.160156 -65.5 62.5 -60.84375 62.5 -54.875 C 62.5 -52.59375 62.148438 -50.398438 61.453125 -48.296875 C 60.753906 -46.203125 59.6875 -44.304688 58.25 -42.609375 C 56.8125 -40.921875 54.96875 -39.46875 52.71875 -38.25 C 50.476562 -37.039062 47.773438 -36.144531 44.609375 -35.5625 C 47.410156 -34.75 49.726562 -33.273438 51.5625 -31.140625 C 53.40625 -29.003906 54.914062 -25.910156 56.09375 -21.859375 L 60.84375 -5.625 Z M 70.234375 -4.53125 "/></g></g></g><g fill="#000000" fill-opacity="1"><g transform="translate(928.435672, 637.708338)"><g><path d="M 45.046875 -29.265625 L 34.234375 -61.171875 L 23.1875 -29.265625 Z M 72.21875 -4.53125 L 72.21875 0 L 42.1875 0 L 42.1875 -4.53125 L 53 -5.859375 L 46.8125 -24.078125 L 21.421875 -24.078125 L 15.234375 -5.96875 L 25.953125 -4.53125 L 25.953125 0 L 0.546875 0 L 0.546875 -4.53125 L 9.9375 -5.96875 L 33.5625 -73.875 L 40.1875 -73.875 L 63.9375 -5.515625 Z M 72.21875 -4.53125 "/></g></g></g><g fill="#000000" fill-opacity="1"><g transform="translate(255.411272, 745.416704)"><g><path d="M 41.6875 0 L 41.6875 -1.4375 L 45.4375 -1.4375 C 46.1875 -1.4375 46.5625 -1.757812 46.5625 -2.40625 L 46.5625 -43.28125 L 29.84375 0 L 27.125 0 L 10.40625 -42.078125 L 10.40625 -2.5625 C 10.40625 -1.8125 10.773438 -1.4375 11.515625 -1.4375 L 15.28125 -1.4375 L 15.28125 0 L 2.796875 0 L 2.796875 -1.4375 L 6.5625 -1.4375 C 7.3125 -1.4375 7.6875 -1.8125 7.6875 -2.5625 L 7.6875 -48 C 7.6875 -48.632812 7.3125 -48.953125 6.5625 -48.953125 L 2.796875 -48.953125 L 2.796875 -50.40625 L 14.234375 -50.40625 L 30.5625 -9.046875 L 46.5625 -50.40625 L 58 -50.40625 L 58 -48.953125 L 54.234375 -48.953125 C 53.492188 -48.953125 53.125 -48.582031 53.125 -47.84375 L 53.125 -2.40625 C 53.125 -1.757812 53.492188 -1.4375 54.234375 -1.4375 L 58 -1.4375 L 58 0 Z M 41.6875 0 "/></g></g></g><g fill="#000000" fill-opacity="1"><g transform="translate(316.20536, 745.416704)"><g><path d="M 34.15625 -35.046875 L 34.15625 -2.5625 C 34.15625 -1.8125 34.53125 -1.4375 35.28125 -1.4375 L 39.046875 -1.4375 L 39.046875 0 L 35.125 0 C 31.914062 0 29.675781 0.160156 28.40625 0.484375 L 28.40625 -10.3125 C 26.59375 -2.800781 22.59375 0.953125 16.40625 0.953125 C 13.625 0.953125 11.273438 -0.046875 9.359375 -2.046875 C 7.441406 -4.046875 6.484375 -7.097656 6.484375 -11.203125 L 6.484375 -32 C 6.484375 -32.75 6.109375 -33.125 5.359375 -33.125 L 1.59375 -33.125 L 1.59375 -34.5625 L 5.515625 -34.5625 C 8.710938 -34.5625 10.953125 -34.722656 12.234375 -35.046875 L 12.234375 -10.15625 C 12.234375 -7.4375 12.832031 -5.421875 14.03125 -4.109375 C 15.238281 -2.804688 16.828125 -2.15625 18.796875 -2.15625 C 21.628906 -2.15625 23.9375 -3.875 25.71875 -7.3125 C 27.507812 -10.757812 28.40625 -15.707031 28.40625 -22.15625 L 28.40625 -32 C 28.40625 -32.75 28.03125 -33.125 27.28125 -33.125 L 23.515625 -33.125 L 23.515625 -34.5625 L 27.4375 -34.5625 C 30.632812 -34.5625 32.875 -34.722656 34.15625 -35.046875 Z M 34.15625 -35.046875 "/></g></g></g><g fill="#000000" fill-opacity="1"><g transform="translate(357.641335, 745.416704)"><g><path d="M 19.359375 -35.515625 C 23.035156 -35.515625 25.941406 -34.285156 28.078125 -31.828125 C 30.210938 -29.378906 31.28125 -25.785156 31.28125 -21.046875 C 31.28125 -20.078125 31.226562 -19.007812 31.125 -17.84375 L 9.28125 -17.84375 L 9.28125 -17.28125 C 9.28125 -12.21875 10.195312 -8.226562 12.03125 -5.3125 C 13.875 -2.40625 16.25 -0.953125 19.15625 -0.953125 C 22.0625 -0.953125 24.445312 -1.695312 26.3125 -3.1875 C 28.1875 -4.6875 29.46875 -6.820312 30.15625 -9.59375 L 31.6875 -9.28125 C 31.039062 -6.03125 29.570312 -3.507812 27.28125 -1.71875 C 24.988281 0.0625 22.347656 0.953125 19.359375 0.953125 C 14.722656 0.953125 10.867188 -0.671875 7.796875 -3.921875 C 4.734375 -7.171875 3.203125 -11.609375 3.203125 -17.234375 C 3.203125 -22.867188 4.75 -27.320312 7.84375 -30.59375 C 10.9375 -33.875 14.773438 -35.515625 19.359375 -35.515625 Z M 25.765625 -23.765625 C 25.765625 -30.316406 23.3125 -33.59375 18.40625 -33.59375 C 15.945312 -33.59375 13.847656 -32.257812 12.109375 -29.59375 C 10.378906 -26.925781 9.460938 -23.539062 9.359375 -19.4375 L 25.4375 -19.4375 C 25.65625 -21.25 25.765625 -22.691406 25.765625 -23.765625 Z M 25.765625 -23.765625 "/></g></g></g><g fill="#000000" fill-opacity="1"><g transform="translate(392.917905, 745.416704)"><g><path d="M 32.046875 -3.921875 C 29.140625 -0.671875 25.335938 0.953125 20.640625 0.953125 C 15.941406 0.953125 12.019531 -0.800781 8.875 -4.3125 L 8.234375 0.640625 L 6.875 0.640625 L 6.875 -49.28125 C 6.875 -50.03125 6.503906 -50.40625 5.765625 -50.40625 L 2 -50.40625 L 2 -51.84375 L 5.921875 -51.84375 C 9.117188 -51.84375 11.359375 -52 12.640625 -52.3125 L 12.640625 -23.84375 C 13.546875 -27.675781 15 -30.578125 17 -32.546875 C 19 -34.523438 21.226562 -35.515625 23.6875 -35.515625 C 27.039062 -35.515625 30 -33.832031 32.5625 -30.46875 C 35.125 -27.113281 36.40625 -22.660156 36.40625 -17.109375 C 36.40625 -11.566406 34.953125 -7.171875 32.046875 -3.921875 Z M 22.484375 -32.484375 C 19.816406 -32.484375 17.507812 -30.828125 15.5625 -27.515625 C 13.613281 -24.210938 12.640625 -19.441406 12.640625 -13.203125 L 12.640625 -3.28125 C 14.878906 -1.789062 17.425781 -1.046875 20.28125 -1.046875 C 23.132812 -1.046875 25.519531 -2.457031 27.4375 -5.28125 C 29.351562 -8.101562 30.3125 -11.992188 30.3125 -16.953125 C 30.3125 -21.921875 29.539062 -25.75 28 -28.4375 C 26.457031 -31.132812 24.617188 -32.484375 22.484375 -32.484375 Z M 22.484375 -32.484375 "/></g></g></g><g fill="#000000" fill-opacity="1"><g transform="translate(432.514058, 745.416704)"><g><path d="M 7.28125 -2.5625 L 7.28125 -49.28125 C 7.28125 -50.03125 6.90625 -50.40625 6.15625 -50.40625 L 2.40625 -50.40625 L 2.40625 -51.84375 L 6.3125 -51.84375 C 9.519531 -51.84375 11.765625 -52 13.046875 -52.3125 L 13.046875 -2.5625 C 13.046875 -1.8125 13.414062 -1.4375 14.15625 -1.4375 L 17.921875 -1.4375 L 17.921875 0 L 2.40625 0 L 2.40625 -1.4375 L 6.15625 -1.4375 C 6.90625 -1.4375 7.28125 -1.8125 7.28125 -2.5625 Z M 7.28125 -2.5625 "/></g></g></g><g fill="#000000" fill-opacity="1"><g transform="translate(452.832092, 745.416704)"><g><path d="M 19.359375 -35.515625 C 23.035156 -35.515625 25.941406 -34.285156 28.078125 -31.828125 C 30.210938 -29.378906 31.28125 -25.785156 31.28125 -21.046875 C 31.28125 -20.078125 31.226562 -19.007812 31.125 -17.84375 L 9.28125 -17.84375 L 9.28125 -17.28125 C 9.28125 -12.21875 10.195312 -8.226562 12.03125 -5.3125 C 13.875 -2.40625 16.25 -0.953125 19.15625 -0.953125 C 22.0625 -0.953125 24.445312 -1.695312 26.3125 -3.1875 C 28.1875 -4.6875 29.46875 -6.820312 30.15625 -9.59375 L 31.6875 -9.28125 C 31.039062 -6.03125 29.570312 -3.507812 27.28125 -1.71875 C 24.988281 0.0625 22.347656 0.953125 19.359375 0.953125 C 14.722656 0.953125 10.867188 -0.671875 7.796875 -3.921875 C 4.734375 -7.171875 3.203125 -11.609375 3.203125 -17.234375 C 3.203125 -22.867188 4.75 -27.320312 7.84375 -30.59375 C 10.9375 -33.875 14.773438 -35.515625 19.359375 -35.515625 Z M 25.765625 -23.765625 C 25.765625 -30.316406 23.3125 -33.59375 18.40625 -33.59375 C 15.945312 -33.59375 13.847656 -32.257812 12.109375 -29.59375 C 10.378906 -26.925781 9.460938 -23.539062 9.359375 -19.4375 L 25.4375 -19.4375 C 25.65625 -21.25 25.765625 -22.691406 25.765625 -23.765625 Z M 25.765625 -23.765625 "/></g></g></g><g fill="#000000" fill-opacity="1"><g transform="translate(488.108662, 745.416704)"><g><path d="M 13.59375 -21.6875 L 21.921875 -18.5625 C 23.890625 -17.8125 25.394531 -16.675781 26.4375 -15.15625 C 27.476562 -13.632812 28 -11.941406 28 -10.078125 C 28 -7.203125 26.851562 -4.644531 24.5625 -2.40625 C 22.269531 -0.164062 19.1875 0.953125 15.3125 0.953125 C 11.445312 0.953125 7.8125 0.234375 4.40625 -1.203125 C 4.71875 -2.484375 4.875 -4.722656 4.875 -7.921875 L 4.875 -11.125 L 6.3125 -11.125 L 6.875 -6.953125 C 7.351562 -2.953125 10.15625 -0.953125 15.28125 -0.953125 C 17.570312 -0.953125 19.476562 -1.660156 21 -3.078125 C 22.519531 -4.492188 23.28125 -6.109375 23.28125 -7.921875 C 23.28125 -10.429688 21.757812 -12.242188 18.71875 -13.359375 L 10.40625 -16.484375 C 8.53125 -17.171875 7.113281 -18.257812 6.15625 -19.75 C 5.195312 -21.25 4.71875 -22.929688 4.71875 -24.796875 C 4.71875 -27.628906 5.726562 -30.125 7.75 -32.28125 C 9.78125 -34.4375 12.328125 -35.515625 15.390625 -35.515625 C 18.460938 -35.515625 21.921875 -34.796875 25.765625 -33.359375 C 25.441406 -32.078125 25.28125 -29.835938 25.28125 -26.640625 L 25.28125 -23.4375 L 23.84375 -23.4375 L 23.28125 -27.59375 C 22.851562 -31.4375 20.425781 -33.359375 16 -33.359375 C 14.03125 -33.359375 12.40625 -32.742188 11.125 -31.515625 C 9.84375 -30.296875 9.203125 -28.859375 9.203125 -27.203125 C 9.203125 -24.640625 10.664062 -22.800781 13.59375 -21.6875 Z M 13.59375 -21.6875 "/></g></g></g><g fill="#000000" fill-opacity="1"><g transform="translate(519.70559, 745.416704)"><g/></g></g><g fill="#000000" fill-opacity="1"><g transform="translate(539.703636, 745.416704)"><g><path d="M 23.359375 -31.359375 L 23.359375 -17.84375 L 36.953125 -17.84375 L 36.953125 -13.59375 L 23.359375 -13.59375 L 23.359375 0 L 19.125 0 L 19.125 -13.59375 L 5.59375 -13.59375 L 5.59375 -17.84375 L 19.125 -17.84375 L 19.125 -31.359375 Z M 23.359375 -31.359375 "/></g></g></g><g fill="#000000" fill-opacity="1"><g transform="translate(582.259494, 745.416704)"><g/></g></g><g fill="#000000" fill-opacity="1"><g transform="translate(602.25754, 745.416704)"><g><path d="M 2.796875 0 L 2.796875 -1.4375 L 6.5625 -1.4375 C 7.3125 -1.4375 7.6875 -1.8125 7.6875 -2.5625 L 7.6875 -48 C 7.6875 -48.632812 7.3125 -48.953125 6.5625 -48.953125 L 2.796875 -48.953125 L 2.796875 -50.40625 L 28.15625 -50.40625 C 32.375 -50.40625 35.335938 -50.644531 37.046875 -51.125 C 36.554688 -48.9375 36.3125 -45.894531 36.3125 -42 L 36.3125 -38.234375 L 34.484375 -38.234375 L 33.28125 -46.40625 C 33.175781 -47.570312 32.429688 -48.15625 31.046875 -48.15625 L 14.234375 -48.15625 L 14.234375 -26.3125 L 30.3125 -26.3125 C 30.957031 -26.3125 31.332031 -26.6875 31.4375 -27.4375 L 31.84375 -32.40625 L 33.28125 -32.40625 L 33.28125 -18 L 31.84375 -18 L 31.4375 -22.953125 C 31.332031 -23.703125 30.957031 -24.078125 30.3125 -24.078125 L 14.234375 -24.078125 L 14.234375 -2.234375 L 32.15625 -2.234375 C 33.539062 -2.234375 34.289062 -2.820312 34.40625 -4 L 35.59375 -13.359375 L 37.4375 -13.359375 L 37.4375 -9.59375 C 37.4375 -4.90625 37.675781 -1.46875 38.15625 0.71875 C 36.445312 0.238281 33.488281 0 29.28125 0 Z M 2.796875 0 "/></g></g></g><g fill="#000000" fill-opacity="1"><g transform="translate(643.613508, 745.416704)"><g><path d="M 7.28125 -2.5625 L 7.28125 -49.28125 C 7.28125 -50.03125 6.90625 -50.40625 6.15625 -50.40625 L 2.40625 -50.40625 L 2.40625 -51.84375 L 6.3125 -51.84375 C 9.519531 -51.84375 11.765625 -52 13.046875 -52.3125 L 13.046875 -2.5625 C 13.046875 -1.8125 13.414062 -1.4375 14.15625 -1.4375 L 17.921875 -1.4375 L 17.921875 0 L 2.40625 0 L 2.40625 -1.4375 L 6.15625 -1.4375 C 6.90625 -1.4375 7.28125 -1.8125 7.28125 -2.5625 Z M 7.28125 -2.5625 "/></g></g></g><g fill="#000000" fill-opacity="1"><g transform="translate(663.93153, 745.416704)"><g><path d="M 19.359375 -35.515625 C 23.035156 -35.515625 25.941406 -34.285156 28.078125 -31.828125 C 30.210938 -29.378906 31.28125 -25.785156 31.28125 -21.046875 C 31.28125 -20.078125 31.226562 -19.007812 31.125 -17.84375 L 9.28125 -17.84375 L 9.28125 -17.28125 C 9.28125 -12.21875 10.195312 -8.226562 12.03125 -5.3125 C 13.875 -2.40625 16.25 -0.953125 19.15625 -0.953125 C 22.0625 -0.953125 24.445312 -1.695312 26.3125 -3.1875 C 28.1875 -4.6875 29.46875 -6.820312 30.15625 -9.59375 L 31.6875 -9.28125 C 31.039062 -6.03125 29.570312 -3.507812 27.28125 -1.71875 C 24.988281 0.0625 22.347656 0.953125 19.359375 0.953125 C 14.722656 0.953125 10.867188 -0.671875 7.796875 -3.921875 C 4.734375 -7.171875 3.203125 -11.609375 3.203125 -17.234375 C 3.203125 -22.867188 4.75 -27.320312 7.84375 -30.59375 C 10.9375 -33.875 14.773438 -35.515625 19.359375 -35.515625 Z M 25.765625 -23.765625 C 25.765625 -30.316406 23.3125 -33.59375 18.40625 -33.59375 C 15.945312 -33.59375 13.847656 -32.257812 12.109375 -29.59375 C 10.378906 -26.925781 9.460938 -23.539062 9.359375 -19.4375 L 25.4375 -19.4375 C 25.65625 -21.25 25.765625 -22.691406 25.765625 -23.765625 Z M 25.765625 -23.765625 "/></g></g></g><g fill="#000000" fill-opacity="1"><g transform="translate(699.208077, 745.416704)"><g><path d="M 19.515625 -33.59375 C 16.472656 -33.59375 14.003906 -32.140625 12.109375 -29.234375 C 10.222656 -26.328125 9.28125 -22.34375 9.28125 -17.28125 C 9.28125 -12.21875 10.195312 -8.226562 12.03125 -5.3125 C 13.875 -2.40625 16.25 -0.953125 19.15625 -0.953125 C 22.0625 -0.953125 24.445312 -1.695312 26.3125 -3.1875 C 28.1875 -4.6875 29.46875 -6.820312 30.15625 -9.59375 L 31.6875 -9.28125 C 31.039062 -6.03125 29.570312 -3.507812 27.28125 -1.71875 C 24.988281 0.0625 22.347656 0.953125 19.359375 0.953125 C 14.722656 0.953125 10.867188 -0.671875 7.796875 -3.921875 C 4.734375 -7.171875 3.203125 -11.625 3.203125 -17.28125 C 3.203125 -22.9375 4.75 -27.390625 7.84375 -30.640625 C 10.9375 -33.890625 14.828125 -35.515625 19.515625 -35.515625 C 23.140625 -35.515625 25.859375 -34.703125 27.671875 -33.078125 C 29.492188 -31.453125 30.40625 -29.28125 30.40625 -26.5625 C 30.40625 -23.039062 29.414062 -21.28125 27.4375 -21.28125 C 25.84375 -21.28125 24.5625 -21.707031 23.59375 -22.5625 C 24.34375 -24.15625 24.71875 -25.816406 24.71875 -27.546875 C 24.71875 -29.285156 24.273438 -30.726562 23.390625 -31.875 C 22.515625 -33.019531 21.222656 -33.59375 19.515625 -33.59375 Z M 19.515625 -33.59375 "/></g></g></g><g fill="#000000" fill-opacity="1"><g transform="translate(732.884831, 745.416704)"><g><path d="M 11.046875 -43.046875 L 12.234375 -43.046875 L 12.234375 -34.5625 L 20.234375 -34.5625 L 20.234375 -33.125 L 12.234375 -33.125 L 12.234375 -6 C 12.234375 -3.125 13.035156 -1.6875 14.640625 -1.6875 C 15.390625 -1.6875 16.039062 -2.03125 16.59375 -2.71875 C 17.15625 -3.414062 17.4375 -4.21875 17.4375 -5.125 C 17.4375 -6.03125 17.359375 -6.882812 17.203125 -7.6875 L 18.71875 -7.921875 C 18.9375 -7.117188 19.046875 -6.238281 19.046875 -5.28125 C 19.046875 -3.363281 18.46875 -1.84375 17.3125 -0.71875 C 16.164062 0.394531 14.660156 0.953125 12.796875 0.953125 C 10.929688 0.953125 9.410156 0.195312 8.234375 -1.3125 C 7.066406 -2.832031 6.484375 -5.113281 6.484375 -8.15625 L 6.484375 -32 C 6.484375 -32.75 6.109375 -33.125 5.359375 -33.125 L 1.59375 -33.125 L 1.59375 -34.5625 L 5.515625 -34.5625 C 7.222656 -34.5625 9.066406 -37.390625 11.046875 -43.046875 Z M 11.046875 -43.046875 "/></g></g></g><g fill="#000000" fill-opacity="1"><g transform="translate(754.72272, 745.416704)"><g><path d="M 23.59375 -35.515625 C 25.675781 -35.515625 27.367188 -34.632812 28.671875 -32.875 C 29.984375 -31.113281 30.640625 -28.898438 30.640625 -26.234375 C 30.640625 -23.566406 29.546875 -22.234375 27.359375 -22.234375 C 26.078125 -22.234375 25.035156 -22.632812 24.234375 -23.4375 C 24.929688 -24.988281 25.28125 -26.5625 25.28125 -28.15625 C 25.28125 -30.988281 24.109375 -32.40625 21.765625 -32.40625 C 19.785156 -32.40625 18.035156 -30.765625 16.515625 -27.484375 C 14.992188 -24.203125 14.234375 -19.441406 14.234375 -13.203125 L 14.234375 -2.5625 C 14.234375 -1.8125 14.609375 -1.4375 15.359375 -1.4375 L 20.71875 -1.4375 L 20.71875 0 L 3.59375 0 L 3.59375 -1.4375 L 7.359375 -1.4375 C 8.109375 -1.4375 8.484375 -1.8125 8.484375 -2.5625 L 8.484375 -32 C 8.484375 -32.75 8.109375 -33.125 7.359375 -33.125 L 3.59375 -33.125 L 3.59375 -34.5625 L 7.515625 -34.5625 C 10.710938 -34.5625 12.953125 -34.722656 14.234375 -35.046875 L 14.234375 -24.796875 C 15.085938 -28.472656 16.34375 -31.175781 18 -32.90625 C 19.65625 -34.644531 21.519531 -35.515625 23.59375 -35.515625 Z M 23.59375 -35.515625 "/></g></g></g><g fill="#000000" fill-opacity="1"><g transform="translate(785.759689, 745.416704)"><g><path d="M 7.671875 -3.921875 C 4.691406 -7.171875 3.203125 -11.625 3.203125 -17.28125 C 3.203125 -22.9375 4.691406 -27.390625 7.671875 -30.640625 C 10.660156 -33.890625 14.554688 -35.515625 19.359375 -35.515625 C 24.160156 -35.515625 28.066406 -33.890625 31.078125 -30.640625 C 34.085938 -27.390625 35.59375 -22.9375 35.59375 -17.28125 C 35.59375 -11.625 34.085938 -7.171875 31.078125 -3.921875 C 28.066406 -0.671875 24.160156 0.953125 19.359375 0.953125 C 14.554688 0.953125 10.660156 -0.671875 7.671875 -3.921875 Z M 12.15625 -29.3125 C 10.238281 -26.351562 9.28125 -22.34375 9.28125 -17.28125 C 9.28125 -12.21875 10.238281 -8.203125 12.15625 -5.234375 C 14.082031 -2.273438 16.484375 -0.796875 19.359375 -0.796875 C 22.242188 -0.796875 24.65625 -2.273438 26.59375 -5.234375 C 28.539062 -8.203125 29.515625 -12.21875 29.515625 -17.28125 C 29.515625 -22.34375 28.539062 -26.351562 26.59375 -29.3125 C 24.65625 -32.28125 22.242188 -33.765625 19.359375 -33.765625 C 16.484375 -33.765625 14.082031 -32.28125 12.15625 -29.3125 Z M 12.15625 -29.3125 "/></g></g></g><g clip-path="url(#09e2ddc6ac)"><path fill="#737373" d="M 542.359375 1080 C 244.878906 1080 3.898438 837.359375 3.898438 541.539062 C 3.898438 245.71875 244.878906 3.082031 542.359375 3.082031 C 839.839844 3.082031 1080.816406 244.058594 1080.816406 541.539062 C 1080.816406 839.019531 838.179688 1080 542.359375 1080 Z M 542.359375 36.320312 C 263.15625 36.320312 37.136719 262.339844 37.136719 541.539062 C 37.136719 820.738281 263.15625 1046.761719 542.359375 1046.761719 C 821.558594 1046.761719 1047.578125 820.738281 1047.578125 541.539062 C 1047.578125 262.339844 819.898438 36.320312 542.359375 36.320312 Z M 542.359375 36.320312 " fill-opacity="1" fill-rule="nonzero"/></g><g clip-path="url(#4b352a33c1)"><path fill="#000000" d="M 540 1079.917969 C 242.335938 1079.917969 0 837.582031 0 539.917969 C 0 242.253906 242.335938 -0.0820312 540 -0.0820312 C 837.664062 -0.0820312 1080 242.253906 1080 539.917969 C 1080 837.582031 837.664062 1079.917969 540 1079.917969 Z M 540 7.898438 C 246.589844 7.898438 7.980469 246.507812 7.980469 539.917969 C 7.980469 833.328125 246.589844 1071.9375 540 1071.9375 C 833.410156 1071.9375 1072.019531 833.328125 1072.019531 539.917969 C 1072.019531 246.507812 833.410156 7.898438 540 7.898438 Z M 540 7.898438 " fill-opacity="1" fill-rule="nonzero"/></g><g clip-path="url(#88e712f1fa)"><path fill="#000000" d="M 543.769531 1048.074219 C 264.5 1048.074219 37.144531 820.714844 37.144531 541.449219 C 37.144531 262.179688 264.5 34.824219 543.769531 34.824219 C 823.035156 34.824219 1050.394531 262.179688 1050.394531 541.449219 C 1050.394531 820.714844 823.035156 1048.074219 543.769531 1048.074219 Z M 543.769531 42.3125 C 268.492188 42.3125 44.628906 266.175781 44.628906 541.449219 C 44.628906 816.722656 268.492188 1040.585938 543.769531 1040.585938 C 819.042969 1040.585938 1042.90625 816.722656 1042.90625 541.449219 C 1042.90625 266.175781 819.042969 42.3125 543.769531 42.3125 Z M 543.769531 42.3125 " fill-opacity="1" fill-rule="nonzero"/></g></svg>